#N canvas 0 59 1366 681 12;
#X obj 37 23 bng 15 250 50 0 empty empty empty 17 7 0 10 -262144 -1
-1;
#X obj 94 22 tgl 15 0 empty empty empty 17 7 0 10 -262144 -1 -1 0 1
;
#X obj 31 87 print;
#X msg 33 57 hola;
#X floatatom 95 54 5 0 0 0 - - -;
#X obj 59 152 +;
#X floatatom 43 123 5 0 0 0 - - -;
#X floatatom 84 126 5 0 0 0 - - -;
#X floatatom 64 181 5 0 0 0 - - -;
#X obj 222 47 metro 1000;
#X text 251 23 ms;
#X obj 220 21 tgl 15 0 empty empty empty 17 7 0 10 -262144 -1 -1 0
1;
#X obj 221 80 bng 15 250 50 0 empty empty empty 17 7 0 10 -262144 -1
-1;
#X obj 304 81 bng 15 250 50 0 empty empty empty 17 7 0 10 -262144 -1
-1;
#X obj 305 48 metro 2000;
#X obj 247 310 tabwrite~ onda;
#N canvas 0 50 450 250 (subpatch) 0;
#X array onda 100 float 3;
#A 0 0 0 0 0 0 0 0 0 0 0 0 0 0 0 0 0 0 0 0 0 0 0 0 0 0 0 0 0 0 0 0
0 0 0 0 0 0 0 0 0 0 0 0 0 0 0 0 0 0 0 0 0 0 0 0 0 0 0 0 0 0 0 0 0 0
0 0 0 0 0 0 0 0 0 0 0 0 0 0 0 0 0 0 0 0 0 0 0 0 0 0 0 0 0 0 0 0 0 0
0;
#X coords 0 1 100 -1 200 140 1;
#X restore 372 198 graph;
#X obj 187 232 *~;
#X obj 186 193 osc~;
#X obj 240 193 hsl 128 15 0 1 0 0 empty empty empty -2 -8 0 10 -262144
-1 -1 0 1;
#X floatatom 234 216 5 0 0 0 - - -;
#X obj 148 98 vsl 15 128 115 700 0 0 empty empty empty 0 -9 0 10 -262144
-1 -1 0 1;
#X floatatom 184 164 5 0 0 0 - - -;
#X obj 184 284 dac~;
#X text 310 227 ms;
#X obj 279 225 tgl 15 0 empty empty empty 17 7 0 10 -262144 -1 -1 1
1;
#X obj 280 284 bng 15 250 50 0 empty empty empty 17 7 0 10 -262144
-1 -1;
#X text 233 171 volumen;
#X text 183 145 hz;
#X obj 429 15 key;
#X floatatom 429 39 5 0 0 0 - - -;
#X text 460 14 ASCII;
#X text -10 146 actualiza;
#X obj 428 101 bng 15 250 50 0 empty empty empty 17 7 0 10 -262144
-1 -1;
#X obj 488 101 bng 15 250 50 0 empty empty empty 17 7 0 10 -262144
-1 -1;
#X obj 526 99 bng 15 250 50 0 empty empty empty 17 7 0 10 -262144 -1
-1;
#X obj 429 68 select 113 122;
#X obj 281 251 metro 0;
#X connect 0 0 3 0;
#X connect 1 0 4 0;
#X connect 3 0 2 0;
#X connect 5 0 8 0;
#X connect 6 0 5 0;
#X connect 7 0 5 1;
#X connect 9 0 12 0;
#X connect 11 0 9 0;
#X connect 11 0 14 0;
#X connect 14 0 13 0;
#X connect 17 0 23 0;
#X connect 17 0 23 1;
#X connect 17 0 15 0;
#X connect 18 0 17 0;
#X connect 19 0 20 0;
#X connect 20 0 17 1;
#X connect 21 0 22 0;
#X connect 22 0 18 0;
#X connect 25 0 37 0;
#X connect 26 0 15 0;
#X connect 29 0 30 0;
#X connect 30 0 36 0;
#X connect 36 0 33 0;
#X connect 36 1 34 0;
#X connect 36 2 35 0;
#X connect 37 0 26 0;


#aqui casual dañando el code
