#N canvas 387 118 1364 680 12;
#X obj 134 98 line;
#X floatatom 134 123 5 0 0 0 - - -;
#X obj 129 240 dac~;
#X obj 135 155 osc~;
#X obj 132 188 *~;
#X obj 195 124 line;
#X obj 249 6 bng 15 250 50 0 empty empty empty 17 7 0 10 -262144 -1
-1;
#X msg 329 209 start;
#X msg 424 210 stop;
#X obj 405 79 line;
#X floatatom 405 104 5 0 0 0 - - -;
#X obj 406 136 osc~;
#X obj 403 169 *~;
#X obj 472 144 line;
#X obj 195 262 writesf~ 2, f 12;
#X msg 191 211 open estereo.wav;
#X floatatom 198 154 5 0 0 0 - - -;
#X floatatom 465 172 5 0 0 0 - - -;
#X obj 403 34 200 \, 700 5000;
#X obj 131 53 115 \, 700 5000;
#X obj 200 95 0.8 \, 0 1000;
#X obj 470 108 0 \, 0.8 1000;
#X connect 0 0 1 0;
#X connect 1 0 3 0;
#X connect 3 0 4 0;
#X connect 4 0 2 0;
#X connect 4 0 2 1;
#X connect 4 0 14 0;
#X connect 5 0 16 0;
#X connect 6 0 7 0;
#X connect 6 0 18 0;
#X connect 6 0 19 0;
#X connect 6 0 20 0;
#X connect 6 0 21 0;
#X connect 7 0 14 0;
#X connect 8 0 14 0;
#X connect 9 0 10 0;
#X connect 10 0 11 0;
#X connect 11 0 12 0;
#X connect 12 0 14 1;
#X connect 13 0 17 0;
#X connect 15 0 14 0;
#X connect 16 0 4 1;
#X connect 17 0 12 1;
#X connect 18 0 9 0;
#X connect 19 0 0 0;
#X connect 20 0 5 0;
#X connect 21 0 13 0;
