#N canvas 0 59 1366 681 12;
#X floatatom 543 82 5 0 0 0 - - -;
#X obj 542 106 osc~;
#X obj 542 131 *~;
#X obj 540 173 dac~;
#X obj 646 168 tabwrite~ seno;
#X obj 639 127 metro 50;
#X obj 639 92 tgl 15 0 empty empty empty 17 7 0 10 -262144 -1 -1 1
1;
#X floatatom 584 126 5 0 0 0 - - -;
#X obj 588 58 hsl 128 15 0 1 0 0 empty empty empty -2 -8 0 10 -262144
-1 -1 0 1;
#N canvas 0 50 450 250 (subpatch) 0;
#X array seno 100 float 3;
#A 0 0 0 0 0 0 0 0 0 0 0 0 0 0 0 0 0 0 0 0 0 0 0 0 0 0 0 0 0 0 0 0
0 0 0 0 0 0 0 0 0 0 0 0 0 0 0 0 0 0 0 0 0 0 0 0 0 0 0 0 0 0 0 0 0 0
0 0 0 0 0 0 0 0 0 0 0 0 0 0 0 0 0 0 0 0 0 0 0 0 0 0 0 0 0 0 0 0 0 0
0;
#X coords 0 1 100 -1 200 140 1 0 0;
#X restore 758 32 graph;
#X obj 542 36 hsl 128 15 115 700 0 0 empty empty empty -2 -8 0 10 -262144
-1 -1 0 1;
#N canvas 0 50 450 250 (subpatch) 0;
#X array sierra 100 float 3;
#A 0 0 0 0 0 0 0 0 0 0 0 0 0 0 0 0 0 0 0 0 0 0 0 0 0 0 0 0 0 0 0 0
0 0 0 0 0 0 0 0 0 0 0 0 0 0 0 0 0 0 0 0 0 0 0 0 0 0 0 0 0 0 0 0 0 0
0 0 0 0 0 0 0 0 0 0 0 0 0 0 0 0 0 0 0 0 0 0 0 0 0 0 0 0 0 0 0 0 0 0
0;
#X coords 0 1 100 -1 200 140 1 0 0;
#X restore 320 49 graph;
#N canvas 0 50 450 250 (subpatch) 0;
#X array cuadrada 100 float 3;
#A 0 0 0 0 0 0 0 0 0 0 0 0 0 0 0 0 0 0 0 0 0 0 0 0 0 0 0 0 0 0 0 0
0 0 0 0 0 0 0 0 0 0 0 0 0 0 0 0 0 0 0 0 0 0 0 0 0 0 0 0 0 0 0 0 0 0
0 0 0 0 0 0 0 0 0 0 0 0 0 0 0 0 0 0 0 0 0 0 0 0 0 0 0 0 0 0 0 0 0 0
0;
#X coords 0 1 100 -1 200 140 1 0 0;
#X restore 321 277 graph;
#N canvas 0 50 450 250 (subpatch) 0;
#X array triangular 100 float 3;
#A 0 0 0 0 0 0 0 0 0 0 0 0 0 0 0 0 0 0 0 0 0 0 0 0 0 0 0 0 0 0 0 0
0 0 0 0 0 0 0 0 0 0 0 0 0 0 0 0 0 0 0 0 0 0 0 0 0 0 0 0 0 0 0 0 0 0
0 0 0 0 0 0 0 0 0 0 0 0 0 0 0 0 0 0 0 0 0 0 0 0 0 0 0 0 0 0 0 0 0 0
0;
#X coords 0 1 100 -1 200 140 1 0 0;
#X restore 1223 60 graph;
#X floatatom 84 36 5 0 0 0 - - -;
#X obj 83 60 phasor~;
#X obj 83 85 -~ 0.5;
#X obj 83 119 *~;
#X obj 84 184 dac~;
#X obj 204 97 metro 50;
#X obj 201 64 tgl 15 0 empty empty empty 17 7 0 10 -262144 -1 -1 1
1;
#X obj 72 8 hsl 128 15 0 1000 0 0 empty empty empty -2 -8 0 10 -262144
-1 -1 12700 1;
#X floatatom 142 97 5 0 0 0 - - -;
#X obj 146 29 hsl 128 15 0 1 0 0 empty empty empty -2 -8 0 10 -262144
-1 -1 0 1;
#X obj 197 131 tabwrite~ sierra;
#X floatatom 71 249 5 0 0 0 - - -;
#X obj 94 279 phasor~;
#X obj 94 304 -~ 0.5;
#X obj 89 412 *~;
#X obj 87 462 dac~;
#X obj 189 424 metro 50;
#X obj 186 391 tgl 15 0 empty empty empty 17 7 0 10 -262144 -1 -1 1
1;
#X obj 60 216 hsl 128 15 115 700 0 0 empty empty empty -2 -8 0 10 -262144
-1 -1 1200 1;
#X floatatom 145 389 5 0 0 0 - - -;
#X obj 152 351 hsl 128 15 0 1 0 0 empty empty empty -2 -8 0 10 -262144
-1 -1 0 1;
#X obj 182 458 tabwrite~ cuadrada;
#X obj 97 352 +~;
#X obj 183 294 phasor~;
#X obj 183 319 -~ 0.5;
#X obj 181 261 *~ -1;
#X msg 235 264 0.5;
#X msg 121 250 0;
#X obj 198 219 bng 15 250 50 0 empty empty empty 17 7 0 10 -262144
-1 -1;
#X floatatom 1001 64 5 0 0 0 - - -;
#X obj 1017 96 phasor~;
#X obj 1081 337 dac~;
#X obj 1213 267 metro 50;
#X obj 1208 234 tgl 15 0 empty empty empty 17 7 0 10 -262144 -1 -1
1 1;
#X obj 991 31 hsl 128 15 115 700 0 0 empty empty empty -2 -8 0 10 -262144
-1 -1 0 1;
#X obj 1032 266 hsl 128 15 0 1 0 0 empty empty empty -2 -8 0 10 -262144
-1 -1 0 1;
#X obj 1082 219 +~;
#X obj 1113 109 phasor~;
#X obj 1113 134 -~ 0.5;
#X obj 1111 76 *~ -1;
#X msg 1051 65 0;
#X obj 1128 34 bng 15 250 50 0 empty empty empty 17 7 0 10 -262144
-1 -1;
#X obj 1027 155 *~ 2;
#X obj 1117 162 *~ 2;
#X obj 1027 188 clip~ 0 1;
#X obj 1117 190 clip~ 0 1;
#X obj 1026 121 -~ 0.5;
#X obj 1082 248 -~ 0.5;
#X obj 1204 301 tabwrite~ triangular;
#X msg 1165 79 0;
#X obj 1116 433 hsl 128 15 0 1 0 0 empty empty empty -2 -8 0 10 -262144
-1 -1 2300 1;
#X floatatom 1113 457 5 0 0 0 - - -;
#X obj 1083 287 *~;
#X obj 1040 500 *~;
#X obj 1078 501 *~;
#X obj 1059 560 dac~;
#X obj 904 505 metro 50;
#X obj 901 472 tgl 15 0 empty empty empty 17 7 0 10 -262144 -1 -1 1
1;
#X obj 1159 503 metro 50;
#X obj 1174 474 tgl 15 0 empty empty empty 17 7 0 10 -262144 -1 -1
1 1;
#N canvas 0 50 450 250 (subpatch) 0;
#X array dere 100 float 3;
#A 0 0 0 0 0 0 0 0 0 0 0 0 0 0 0 0 0 0 0 0 0 0 0 0 0 0 0 0 0 0 0 0
0 0 0 0 0 0 0 0 0 0 0 0 0 0 0 0 0 0 0 0 0 0 0 0 0 0 0 0 0 0 0 0 0 0
0 0 0 0 0 0 0 0 0 0 0 0 0 0 0 0 0 0 0 0 0 0 0 0 0 0 0 0 0 0 0 0 0 0
0;
#X coords 0 1 100 -1 200 140 1;
#X restore 562 489 graph;
#N canvas 0 50 450 250 (subpatch) 0;
#X array izq 100 float 3;
#A 0 0 0 0 0 0 0 0 0 0 0 0 0 0 0 0 0 0 0 0 0 0 0 0 0 0 0 0 0 0 0 0
0 0 0 0 0 0 0 0 0 0 0 0 0 0 0 0 0 0 0 0 0 0 0 0 0 0 0 0 0 0 0 0 0 0
0 0 0 0 0 0 0 0 0 0 0 0 0 0 0 0 0 0 0 0 0 0 0 0 0 0 0 0 0 0 0 0 0 0
0;
#X coords 0 1 100 -1 200 140 1 0 0;
#X restore 353 490 graph;
#X obj 897 539 tabwrite~ izq;
#X obj 1152 537 tabwrite~ dere;
#X connect 0 0 1 0;
#X connect 1 0 2 0;
#X connect 2 0 4 0;
#X connect 2 0 67 0;
#X connect 2 0 68 0;
#X connect 5 0 4 0;
#X connect 6 0 5 0;
#X connect 7 0 2 1;
#X connect 8 0 7 0;
#X connect 10 0 0 0;
#X connect 14 0 15 0;
#X connect 15 0 16 0;
#X connect 16 0 17 0;
#X connect 17 0 24 0;
#X connect 17 0 67 0;
#X connect 17 0 68 0;
#X connect 19 0 24 0;
#X connect 20 0 19 0;
#X connect 21 0 14 0;
#X connect 22 0 17 1;
#X connect 23 0 22 0;
#X connect 25 0 26 0;
#X connect 25 0 39 0;
#X connect 26 0 27 0;
#X connect 27 0 36 0;
#X connect 28 0 35 0;
#X connect 28 0 67 0;
#X connect 28 0 68 0;
#X connect 30 0 35 0;
#X connect 31 0 30 0;
#X connect 32 0 25 0;
#X connect 33 0 28 1;
#X connect 34 0 33 0;
#X connect 36 0 28 0;
#X connect 37 0 38 0;
#X connect 38 0 36 1;
#X connect 39 0 37 0;
#X connect 40 0 37 1;
#X connect 41 0 26 1;
#X connect 42 0 41 0;
#X connect 42 0 40 0;
#X connect 43 0 44 0;
#X connect 43 0 53 0;
#X connect 44 0 60 0;
#X connect 46 0 62 0;
#X connect 47 0 46 0;
#X connect 48 0 43 0;
#X connect 49 0 66 1;
#X connect 50 0 61 0;
#X connect 51 0 52 0;
#X connect 52 0 57 0;
#X connect 53 0 51 0;
#X connect 54 0 44 1;
#X connect 55 0 54 0;
#X connect 55 0 63 0;
#X connect 56 0 58 0;
#X connect 57 0 59 0;
#X connect 58 0 50 0;
#X connect 59 0 50 0;
#X connect 60 0 56 0;
#X connect 61 0 66 0;
#X connect 63 0 51 1;
#X connect 64 0 65 0;
#X connect 65 0 68 1;
#X connect 65 0 67 1;
#X connect 66 0 62 0;
#X connect 66 0 67 0;
#X connect 66 0 68 0;
#X connect 67 0 69 0;
#X connect 67 0 76 0;
#X connect 68 0 69 1;
#X connect 68 0 77 0;
#X connect 70 0 76 0;
#X connect 71 0 70 0;
#X connect 72 0 77 0;
#X connect 73 0 72 0;

#ending of song
