#N struct g float x1 float y1 float q1;
#N struct g1 float x float y float q;
#N struct g3 float x float y float q2;
#N struct g4 float x float y array tab g4b;
#N struct g4b float y;
#N canvas 1 59 681 680 12;
#X obj 34 674 pointer;
#X obj 41 632 bng 15 250 50 0 empty empty empty 17 7 0 10 -262144 -1
-1;
#X obj -83 696 append g x1 y1;
#N canvas 0 59 1366 681 curva1 0;
#X scalar g 0 0 0 \;;
#X scalar g 0 0 0 \;;
#X restore 128 694 pd curva1;
#X msg 14 592 traverse pd-curva1;
#X obj 74 722 struct g float x1 float y1;
#X msg 148 645 \; pd-curva1 clear;
#X obj 72 755 drawcurve 0 2 0 280 500 280;
#X msg -99 659 0 0;
#X obj -10 1052 pointer;
#X msg -93 1042 0 0;
#X obj -84 998 t c b a;
#X obj -93 961 bng 15 250 50 0 empty empty empty 17 7 0 10 -262144
-1 -1;
#X obj -86 1081 append g1 x y;
#N canvas 0 59 1366 681 curva2 0;
#X scalar g1 0 0 0 \;;
#X restore 3 1112 pd curva2;
#X msg -38 1025 traverse pd-curva2 \, bang;
#X obj 171 1076 pointer;
#X msg 178 1040 next;
#X floatatom 253 1084 5 0 0 0 - - -;
#X obj 192 1108 set g1 q;
#X msg 157 1003 traverse pd-curva2;
#X obj 3 1145 struct g1 float x float y float q;
#X obj 2 1178 drawcurve 0 2 q 280 500 280;
#X msg 15 970 \; pd-curva2 clear;
#X obj 499 694 pointer;
#X msg 366 656 0 0;
#X obj 380 624 t c b a;
#X obj 369 599 bng 15 250 50 0 empty empty empty 17 7 0 10 -262144
-1 -1;
#X msg 580 689 next;
#X msg 424 663 traverse pd-curva3 \, bang;
#X msg 477 608 \; pd-curva3 clear;
#X obj 351 699 append g3 x y;
#N canvas 1 59 1364 680 curva3 0;
#X scalar g3 0 0 500 \;;
#X restore 629 598 pd curva3;
#X obj 629 631 struct g3 float x float y float q2;
#X obj 364 731 t b p;
#X floatatom 588 726 5 0 0 0 - - -;
#X obj 362 798 set g3 q2;
#X obj 493 748 get g3 q2;
#X obj 628 664 drawcurve 0 2 0 q2 500 280;
#X msg 357 768 500;
#X obj 562 1008 pointer;
#X msg 507 986 0 0;
#X obj 517 935 t c b a;
#X obj 506 910 bng 15 250 50 0 empty empty empty 17 7 0 10 -262144
-1 -1;
#N canvas 2 59 681 680 curva4 0;
#X scalar g4 0 0 \; 0 \; \;;
#X restore 822 1128 pd curva4;
#X msg 614 919 \; pd-curva4 clear;
#X msg 561 974 traverse pd-curva4 \, bang;
#X obj 715 1081 element g4 tab;
#X obj 510 1042 append g4 x y;
#X floatatom 705 1017 5 0 0 0 - - -;
#X floatatom 800 1018 5 0 0 0 - - -;
#X floatatom 464 1047 5 0 0 0 - - -;
#X obj 432 1195 plot tab 27 2 40 40 3;
#X obj 471 1082 setsize g4 tab;
#X obj 719 1132 set g4b y;
#N canvas 0 59 1366 681 g4b 0;
#X obj 103 51 struct g4b float y;
#X restore 427 1142 pd g4b;
#X obj 424 1167 struct g4 float x float y array tab g4b;
#X connect 0 0 2 2;
#X connect 1 0 0 0;
#X connect 4 0 0 0;
#X connect 8 0 2 0;
#X connect 9 0 13 2;
#X connect 10 0 13 0;
#X connect 11 0 10 0;
#X connect 11 1 15 0;
#X connect 11 2 23 0;
#X connect 12 0 11 0;
#X connect 15 0 9 0;
#X connect 16 0 19 1;
#X connect 17 0 16 0;
#X connect 18 0 19 0;
#X connect 20 0 16 0;
#X connect 24 0 31 2;
#X connect 24 0 37 0;
#X connect 25 0 31 0;
#X connect 26 0 25 0;
#X connect 26 1 29 0;
#X connect 26 2 30 0;
#X connect 27 0 26 0;
#X connect 28 0 24 0;
#X connect 29 0 24 0;
#X connect 31 0 34 0;
#X connect 34 0 39 0;
#X connect 34 1 36 1;
#X connect 37 0 35 0;
#X connect 39 0 36 0;
#X connect 40 0 48 2;
#X connect 41 0 48 0;
#X connect 42 0 41 0;
#X connect 42 1 46 0;
#X connect 42 2 45 0;
#X connect 43 0 42 0;
#X connect 46 0 40 0;
#X connect 47 0 54 1;
#X connect 48 0 47 1;
#X connect 48 0 53 1;
#X connect 49 0 47 0;
#X connect 50 0 54 0;
#X connect 51 0 53 0;
