#N canvas 684 59 681 680 12;
#X obj 213 153 metro 500;
#X obj 213 118 tgl 15 0 empty empty empty 17 7 0 10 -262144 -1 -1 1
1;
#X obj 217 199 bng 15 250 50 0 empty empty empty 17 7 0 10 -262144
-1 -1;
#X obj 217 219 random 12;
#X floatatom 217 244 5 0 0 0 - - -;
#X floatatom 217 293 5 0 0 0 - - -;
#X obj 217 317 makenote 100 500;
#X obj 217 371 noteout;
#X obj 217 268 + 60;
#X connect 0 0 2 0;
#X connect 1 0 0 0;
#X connect 2 0 3 0;
#X connect 3 0 4 0;
#X connect 4 0 8 0;
#X connect 5 0 6 0;
#X connect 6 0 7 0;
#X connect 6 1 7 1;
#X connect 8 0 5 0;
