#N canvas 231 59 1134 680 12;
#X obj 501 64 print;
#X msg 502 6 hola;
#X obj 78 142 *~;
#X obj 250 235 dac~;
#X obj 77 103 osc~;
#X obj 131 103 hsl 128 15 0 1 0 0 empty empty empty -2 -8 0 10 -262144
-1 -1 0 1;
#X floatatom 125 126 5 0 0 0 - - -;
#X obj 39 8 vsl 15 128 115 700 0 0 empty empty empty 0 -9 0 10 -262144
-1 -1 4700 1;
#X floatatom 75 74 5 0 0 0 - - -;
#X obj 311 139 *~;
#X obj 310 100 osc~;
#X obj 364 100 hsl 128 15 0 1 0 0 empty empty empty -2 -8 0 10 -262144
-1 -1 0 1;
#X floatatom 358 123 5 0 0 0 - - -;
#X obj 272 5 vsl 15 128 115 700 0 0 empty empty empty 0 -9 0 10 -262144
-1 -1 9500 1;
#X floatatom 308 71 5 0 0 0 - - -;
#X connect 1 0 0 0;
#X connect 2 0 3 0;
#X connect 2 0 3 1;
#X connect 4 0 2 0;
#X connect 5 0 6 0;
#X connect 6 0 2 1;
#X connect 7 0 8 0;
#X connect 8 0 4 0;
#X connect 9 0 3 1;
#X connect 9 0 3 0;
#X connect 10 0 9 0;
#X connect 11 0 12 0;
#X connect 12 0 9 1;
#X connect 13 0 14 0;
#X connect 14 0 10 0;
